<svg xmlns="http://www.w3.org/2000/svg" width="1080" height="1350" viewBox="0 0 1080 1350">
<!-- Spud Challenge Meta ad creative — editable source.
     Brand tokens from app/globals.css; mascot grid from components/spud-mascot.tsx.
     Font: Press Start 2P (SIL OFL, see fonts/OFL.txt). Render with render-pngs.mjs. -->
<defs><filter id="pixelGlow" x="-40%" y="-40%" width="180%" height="180%"><feDropShadow dx="0" dy="0" stdDeviation="8" flood-color="#ffd23f" flood-opacity="0.4"/></filter></defs>
<rect width="1080" height="1350" fill="#0a0a0f"/>
<rect x="24" y="24" width="1032" height="1302" fill="none" stroke="#2b2b3a" stroke-width="3"/>
<text x="540" y="150" text-anchor="middle" font-family="Press Start 2P" font-size="20" fill="#8b8b9e">A TRADE CHALLENGE BY SPUD</text>
<g shape-rendering="crispEdges"><rect x="476" y="200" width="128" height="16" fill="#6b4423"/><rect x="444" y="216" width="32" height="16" fill="#6b4423"/><rect x="476" y="216" width="128" height="16" fill="#c98d4f"/><rect x="604" y="216" width="32" height="16" fill="#6b4423"/><rect x="428" y="232" width="16" height="16" fill="#6b4423"/><rect x="444" y="232" width="16" height="16" fill="#c98d4f"/><rect x="460" y="232" width="32" height="16" fill="#e6b877"/><rect x="492" y="232" width="112" height="16" fill="#c98d4f"/><rect x="604" y="232" width="16" height="16" fill="#a06b38"/><rect x="620" y="232" width="16" height="16" fill="#c98d4f"/><rect x="636" y="232" width="16" height="16" fill="#6b4423"/><rect x="428" y="248" width="16" height="16" fill="#6b4423"/><rect x="444" y="248" width="192" height="16" fill="#c98d4f"/><rect x="636" y="248" width="16" height="16" fill="#6b4423"/><rect x="412" y="264" width="16" height="16" fill="#6b4423"/><rect x="428" y="264" width="48" height="16" fill="#c98d4f"/><rect x="476" y="264" width="32" height="16" fill="#ffffff"/><rect x="508" y="264" width="64" height="16" fill="#c98d4f"/><rect x="572" y="264" width="32" height="16" fill="#ffffff"/><rect x="604" y="264" width="48" height="16" fill="#c98d4f"/><rect x="652" y="264" width="16" height="16" fill="#6b4423"/><rect x="412" y="280" width="16" height="16" fill="#6b4423"/><rect x="428" y="280" width="48" height="16" fill="#c98d4f"/><rect x="476" y="280" width="16" height="16" fill="#ffffff"/><rect x="492" y="280" width="16" height="16" fill="#1a1a1a"/><rect x="508" y="280" width="64" height="16" fill="#c98d4f"/><rect x="572" y="280" width="16" height="16" fill="#ffffff"/><rect x="588" y="280" width="16" height="16" fill="#1a1a1a"/><rect x="604" y="280" width="48" height="16" fill="#c98d4f"/><rect x="652" y="280" width="16" height="16" fill="#6b4423"/><rect x="412" y="296" width="16" height="16" fill="#6b4423"/><rect x="428" y="296" width="224" height="16" fill="#c98d4f"/><rect x="652" y="296" width="16" height="16" fill="#6b4423"/><rect x="412" y="312" width="16" height="16" fill="#6b4423"/><rect x="428" y="312" width="80" height="16" fill="#c98d4f"/><rect x="508" y="312" width="64" height="16" fill="#6b4423"/><rect x="572" y="312" width="80" height="16" fill="#c98d4f"/><rect x="652" y="312" width="16" height="16" fill="#6b4423"/><rect x="428" y="328" width="16" height="16" fill="#6b4423"/><rect x="444" y="328" width="80" height="16" fill="#c98d4f"/><rect x="524" y="328" width="32" height="16" fill="#6b4423"/><rect x="556" y="328" width="32" height="16" fill="#c98d4f"/><rect x="588" y="328" width="16" height="16" fill="#a06b38"/><rect x="604" y="328" width="32" height="16" fill="#c98d4f"/><rect x="636" y="328" width="16" height="16" fill="#6b4423"/><rect x="428" y="344" width="16" height="16" fill="#6b4423"/><rect x="444" y="344" width="16" height="16" fill="#c98d4f"/><rect x="460" y="344" width="16" height="16" fill="#a06b38"/><rect x="476" y="344" width="160" height="16" fill="#c98d4f"/><rect x="636" y="344" width="16" height="16" fill="#6b4423"/><rect x="444" y="360" width="32" height="16" fill="#6b4423"/><rect x="476" y="360" width="128" height="16" fill="#c98d4f"/><rect x="604" y="360" width="32" height="16" fill="#6b4423"/><rect x="476" y="376" width="128" height="16" fill="#6b4423"/></g>
<text x="540" y="640" text-anchor="middle" font-family="Press Start 2P" font-size="88"><tspan fill="#ece9e2">I HAVE </tspan><tspan fill="#35d07f">$1.</tspan></text>
<text x="540" y="810" text-anchor="middle" font-family="Press Start 2P" font-size="60" fill="#ece9e2">THINK YOU HAVE</text>
<text x="540" y="900" text-anchor="middle" font-family="Press Start 2P" font-size="52" fill="#ffd23f">SOMETHING BETTER?</text>
<rect x="72" y="1022" width="960" height="100" fill="#000000"/><rect x="60" y="1010" width="960" height="100" fill="#13131c" stroke="#2b2b3a" stroke-width="3"/><g shape-rendering="crispEdges"><rect x="100" y="1035" width="40" height="5" fill="#35d07f"/><rect x="100" y="1040" width="40" height="5" fill="#35d07f"/><rect x="100" y="1045" width="35" height="5" fill="#35d07f"/><rect x="100" y="1050" width="30" height="5" fill="#35d07f"/><rect x="100" y="1055" width="30" height="5" fill="#35d07f"/><rect x="100" y="1060" width="25" height="5" fill="#35d07f"/><rect x="100" y="1065" width="25" height="5" fill="#35d07f"/><rect x="100" y="1070" width="20" height="5" fill="#35d07f"/><rect x="100" y="1075" width="15" height="5" fill="#35d07f"/><rect x="100" y="1080" width="10" height="5" fill="#35d07f"/></g><text x="164" y="1074.28" text-anchor="start" font-family="Press Start 2P" font-size="34" fill="#35d07f">TRADE #1 OFFERS ARE OPEN</text>
<text x="540" y="1266" text-anchor="middle" font-family="Press Start 2P" font-size="20" fill="#8b8b9e">SPUDCHALLENGE.ONLINE</text>
<defs><pattern id="scan" width="3" height="3" patternUnits="userSpaceOnUse"><rect width="3" height="1" fill="#ffffff" opacity="0.025"/></pattern></defs><rect width="1080" height="1350" fill="url(#scan)"/>
</svg>
